<mxfile host="app.diagrams.net" agent="Mozilla/5.0 (Windows NT 10.0; Win64; x64; rv:137.0) Gecko/20100101 Firefox/137.0" version="26.2.3">
  <diagram name="Pagina-1" id="IpRWa3jcy0147Zh6d9rQ">
    <mxGraphModel dx="1360" dy="742" grid="1" gridSize="10" guides="1" tooltips="1" connect="1" arrows="1" fold="1" page="1" pageScale="1" pageWidth="827" pageHeight="1169" math="0" shadow="0">
      <root>
        <mxCell id="0" />
        <mxCell id="1" parent="0" />
        <mxCell id="yl5XS7yj3IDsIzwmvnov-1" value="&lt;pre id=&quot;yui_3_18_1_1_1743842538325_100&quot;&gt;&lt;code class=&quot;language-java&quot;&gt;public class RadixSort {&lt;br&gt;&lt;br&gt;    public static int[] radixSort(int arr[]) {&lt;span style=&quot;white-space: pre;&quot;&gt;&#x9;&lt;/span&gt;&lt;span style=&quot;white-space: pre;&quot;&gt;&#x9;&lt;/span&gt;&lt;span style=&quot;white-space: pre;&quot;&gt;&#x9;&lt;/span&gt;&lt;span style=&quot;white-space: pre;&quot;&gt;&#x9;&lt;/span&gt;//A: def arr&lt;br&gt;        int n = arr.length;&lt;span style=&quot;white-space: pre;&quot;&gt;&#x9;&lt;/span&gt;&lt;span style=&quot;white-space: pre;&quot;&gt;&#x9;&lt;span style=&quot;white-space: pre;&quot;&gt;&#x9;&lt;/span&gt;&lt;/span&gt;&lt;span style=&quot;white-space: pre;&quot;&gt;&#x9;&lt;/span&gt;&lt;span style=&quot;white-space: pre;&quot;&gt;&#x9;&lt;/span&gt;&lt;span style=&quot;white-space: pre;&quot;&gt;&#x9;&lt;/span&gt;&lt;span style=&quot;white-space: pre;&quot;&gt;//B: def n; use arr&lt;/span&gt;&lt;br&gt;        if (n == 0) return; // Handle empty array case&lt;span style=&quot;white-space: pre;&quot;&gt;&#x9;&lt;/span&gt;&lt;span style=&quot;white-space: pre;&quot;&gt;&#x9;&lt;/span&gt;&lt;span style=&quot;white-space: pre;&quot;&gt;&#x9;&lt;/span&gt;//C: use n&lt;br&gt;&lt;br&gt;        // Find the maximum number to determine the number of digits&lt;br&gt;        int max = arr[0];&lt;span style=&quot;white-space: pre;&quot;&gt;&#x9;&lt;/span&gt;&lt;span style=&quot;white-space: pre;&quot;&gt;&#x9;&lt;/span&gt;&lt;span style=&quot;white-space: pre;&quot;&gt;&#x9;&lt;/span&gt;&lt;span style=&quot;white-space: pre;&quot;&gt;&#x9;&lt;/span&gt;&lt;span style=&quot;white-space: pre;&quot;&gt;&#x9;&lt;/span&gt;&lt;span style=&quot;white-space: pre;&quot;&gt;&#x9;//&lt;/span&gt;D: def max; use arr&lt;br&gt;        for (int i = 1; i &amp;lt; n; i++) {&lt;span style=&quot;white-space: pre;&quot;&gt;&#x9;&lt;/span&gt;&lt;span style=&quot;white-space: pre;&quot;&gt;&#x9;&lt;/span&gt;&lt;span style=&quot;white-space: pre;&quot;&gt;&#x9;&lt;/span&gt;&lt;span style=&quot;white-space: pre;&quot;&gt;&#x9;&lt;/span&gt;&lt;span style=&quot;white-space: pre;&quot;&gt;&#x9;&lt;/span&gt;//E: def i; use n, i&lt;br&gt;            if (arr[i] &amp;gt; max) {&lt;span style=&quot;white-space: pre;&quot;&gt;&#x9;&lt;/span&gt;&lt;span style=&quot;white-space: pre;&quot;&gt;&#x9;&lt;/span&gt;&lt;span style=&quot;white-space: pre;&quot;&gt;&#x9;&lt;/span&gt;&lt;span style=&quot;white-space: pre;&quot;&gt;&#x9;&lt;/span&gt;&lt;span style=&quot;white-space: pre;&quot;&gt;&#x9;&lt;/span&gt;&lt;span style=&quot;white-space: pre;&quot;&gt;&#x9;&lt;/span&gt;//F: use arr, i&lt;br&gt;                max = arr[i];&lt;span style=&quot;white-space: pre;&quot;&gt;&#x9;&lt;/span&gt;&lt;span style=&quot;white-space: pre;&quot;&gt;&#x9;&lt;/span&gt;&lt;span style=&quot;white-space: pre;&quot;&gt;&#x9;&lt;/span&gt;&lt;span style=&quot;white-space: pre;&quot;&gt;&#x9;&lt;/span&gt;&lt;span style=&quot;white-space: pre;&quot;&gt;&#x9;&lt;/span&gt;&lt;span style=&quot;white-space: pre;&quot;&gt;&#x9;&lt;/span&gt;//G: def max ; use arr, i&lt;br&gt;            }&lt;br&gt;        }&lt;br&gt;&lt;br&gt;        // Perform counting sort for each digit place (exp = 1, 10, 100, ...)&lt;br&gt;        for (int exp = 1; max / exp &amp;gt; 0; exp *= 10) {&lt;span style=&quot;white-space: pre;&quot;&gt;&#x9;&lt;/span&gt;&lt;span style=&quot;white-space: pre;&quot;&gt;&#x9;&lt;/span&gt;&lt;span style=&quot;white-space: pre;&quot;&gt;&#x9;&lt;/span&gt;&lt;span style=&quot;white-space: pre;&quot;&gt;//&lt;/span&gt;H: def exp; use max,exp&lt;br&gt;            int[] output = new int[n]; // Output array&lt;span style=&quot;white-space: pre;&quot;&gt;&#x9;&lt;/span&gt;&lt;span style=&quot;white-space: pre;&quot;&gt;&#x9;&lt;/span&gt;&lt;span style=&quot;white-space: pre;&quot;&gt;&#x9;&lt;/span&gt;//I: def output; use n&lt;br&gt;            int[] count = new int[10]; // Count array for digits 0-9&lt;span style=&quot;white-space: pre;&quot;&gt;&#x9;&lt;/span&gt;//J: def count&lt;br&gt;&lt;br&gt;            // Initialize count array with zeros&lt;br&gt;            for (int i = 0; i &amp;lt; 10; i++)&lt;span style=&quot;white-space: pre;&quot;&gt;&#x9;&lt;/span&gt;&lt;span style=&quot;white-space: pre;&quot;&gt;&#x9;&lt;/span&gt;&lt;span style=&quot;white-space: pre;&quot;&gt;&#x9;&lt;/span&gt;&lt;span style=&quot;white-space: pre;&quot;&gt;&#x9;&lt;/span&gt;//K: def i; use i&lt;br&gt;                count[i] = 0;&lt;span style=&quot;white-space: pre;&quot;&gt;&#x9;&lt;/span&gt;&lt;span style=&quot;white-space: pre;&quot;&gt;&#x9;&lt;/span&gt;&lt;span style=&quot;white-space: pre;&quot;&gt;&#x9;&lt;/span&gt;&lt;span style=&quot;white-space: pre;&quot;&gt;&#x9;&lt;/span&gt;&lt;span style=&quot;white-space: pre;&quot;&gt;&#x9;&lt;/span&gt;&lt;span style=&quot;white-space: pre;&quot;&gt;&#x9;&lt;/span&gt;//L: def count; use i&lt;br&gt;&lt;br&gt;            // Store count of occurrences in count[]&lt;br&gt;            for (int i = 0; i &amp;lt; n; i++)&lt;span style=&quot;white-space: pre;&quot;&gt;&#x9;&lt;/span&gt;&lt;span style=&quot;white-space: pre;&quot;&gt;&#x9;&lt;/span&gt;&lt;span style=&quot;white-space: pre;&quot;&gt;&#x9;&lt;/span&gt;&lt;span style=&quot;white-space: pre;&quot;&gt;&#x9;&lt;/span&gt;&lt;span style=&quot;white-space: pre;&quot;&gt;&#x9;&lt;/span&gt;//M: def i; use i,n&lt;br&gt;                count[(arr[i] / exp) % 10]++;&lt;span style=&quot;white-space: pre;&quot;&gt;&#x9;&lt;/span&gt;&lt;span style=&quot;white-space: pre;&quot;&gt;&#x9;&lt;/span&gt;&lt;span style=&quot;white-space: pre;&quot;&gt;&#x9;&lt;/span&gt;&lt;span style=&quot;white-space: pre;&quot;&gt;&#x9;&lt;/span&gt;//N: def count; use count, arr,i,exp&lt;br&gt;&lt;br&gt;            // Update count[i] to store actual positions in output[]&lt;br&gt;            for (int i = 1; i &amp;lt; 10; i++)&lt;span style=&quot;white-space: pre;&quot;&gt;&#x9;&lt;/span&gt;&lt;span style=&quot;white-space: pre;&quot;&gt;&#x9;&lt;/span&gt;&lt;span style=&quot;white-space: pre;&quot;&gt;&#x9;&lt;/span&gt;&lt;span style=&quot;white-space: pre;&quot;&gt;&#x9;&lt;/span&gt;//O: def i; use i&lt;br&gt;                count[i] += count[i - 1];&lt;span style=&quot;white-space: pre;&quot;&gt;&#x9;&lt;/span&gt;&lt;span style=&quot;white-space: pre;&quot;&gt;&#x9;&lt;/span&gt;&lt;span style=&quot;white-space: pre;&quot;&gt;&#x9;&lt;/span&gt;&lt;span style=&quot;white-space: pre;&quot;&gt;&#x9;&lt;/span&gt;//P: def count; use count,i&lt;br&gt;&lt;br&gt;            // Build the output array&lt;br&gt;            for (int i = n - 1; i &amp;gt;= 0; i--) {&lt;span style=&quot;white-space: pre;&quot;&gt;&#x9;&lt;/span&gt;&lt;span style=&quot;white-space: pre;&quot;&gt;&#x9;&lt;/span&gt;&lt;span style=&quot;white-space: pre;&quot;&gt;&#x9;&lt;/span&gt;&lt;span style=&quot;white-space: pre;&quot;&gt;&#x9;&lt;/span&gt;//Q: def i, use i,n&lt;br&gt;                int digit = (arr[i] / exp) % 10;&lt;span style=&quot;white-space: pre;&quot;&gt;&#x9;&lt;/span&gt;&lt;span style=&quot;white-space: pre;&quot;&gt;&#x9;&lt;/span&gt;&lt;span style=&quot;white-space: pre;&quot;&gt;&#x9;&lt;/span&gt;//R: def digit; use arr,i,exp&lt;br&gt;                output[count[digit] - 1] = arr[i];&lt;span style=&quot;white-space: pre;&quot;&gt;&#x9;&lt;/span&gt;&lt;span style=&quot;white-space: pre;&quot;&gt;&#x9;&lt;/span&gt;&lt;span style=&quot;white-space: pre;&quot;&gt;&#x9;&lt;/span&gt;//S: def output; use count,digit,arr,i&lt;br&gt;                count[digit]--;&lt;span style=&quot;white-space: pre;&quot;&gt;&#x9;&lt;/span&gt;&lt;span style=&quot;white-space: pre;&quot;&gt;&#x9;&lt;/span&gt;&lt;span style=&quot;white-space: pre;&quot;&gt;&#x9;&lt;/span&gt;&lt;span style=&quot;white-space: pre;&quot;&gt;&#x9;&lt;/span&gt;&lt;span style=&quot;white-space: pre;&quot;&gt;&#x9;&lt;/span&gt;&lt;span style=&quot;white-space: pre;&quot;&gt;&#x9;&lt;/span&gt;//T: def count; use count,digit&lt;br&gt;            }&lt;br&gt;&lt;br&gt;            // Copy output[] back to arr[]&lt;br&gt;            for (int i = 0; i &amp;lt; n; i++)&lt;span style=&quot;white-space: pre;&quot;&gt;&#x9;&lt;/span&gt;&lt;span style=&quot;white-space: pre;&quot;&gt;&#x9;&lt;/span&gt;&lt;span style=&quot;white-space: pre;&quot;&gt;&#x9;&lt;/span&gt;&lt;span style=&quot;white-space: pre;&quot;&gt;&#x9;&lt;/span&gt;&lt;span style=&quot;white-space: pre;&quot;&gt;&#x9;&lt;/span&gt;//U: def i; use i,n&lt;br&gt;                arr[i] = output[i];&lt;span style=&quot;white-space: pre;&quot;&gt;&#x9;&lt;/span&gt;&lt;span style=&quot;white-space: pre;&quot;&gt;&#x9;&lt;/span&gt;&lt;span style=&quot;white-space: pre;&quot;&gt;&#x9;&lt;/span&gt;&lt;span style=&quot;white-space: pre;&quot;&gt;&#x9;&lt;/span&gt;&lt;span style=&quot;white-space: pre;&quot;&gt;&#x9;&lt;/span&gt;//V: def arr; use i,output&lt;br&gt;        }&lt;br&gt;        &lt;br&gt;        return arr; // Return the sorted array&lt;span style=&quot;white-space: pre;&quot;&gt;&#x9;&lt;/span&gt;&lt;span style=&quot;white-space: pre;&quot;&gt;&#x9;&lt;/span&gt;&lt;span style=&quot;white-space: pre;&quot;&gt;&#x9;&lt;/span&gt;&lt;span style=&quot;white-space: pre;&quot;&gt;&#x9;&lt;/span&gt;//Z: use arr&lt;br&gt;    }&lt;br&gt;}&lt;/code&gt;&lt;/pre&gt;" style="text;html=1;whiteSpace=wrap;overflow=hidden;rounded=0;" vertex="1" parent="1">
          <mxGeometry x="20" y="20" width="800" height="700" as="geometry" />
        </mxCell>
        <mxCell id="yl5XS7yj3IDsIzwmvnov-2" value="&lt;pre id=&quot;yui_3_18_1_1_1743842538325_100&quot;&gt;&lt;code class=&quot;language-java&quot;&gt;int n = arr.length;&lt;/code&gt;&lt;/pre&gt;" style="ellipse;whiteSpace=wrap;html=1;" vertex="1" parent="1">
          <mxGeometry x="930" y="80" width="300" height="80" as="geometry" />
        </mxCell>
        <mxCell id="yl5XS7yj3IDsIzwmvnov-3" value="B" style="ellipse;whiteSpace=wrap;html=1;" vertex="1" parent="1">
          <mxGeometry x="890" y="100" width="40" height="40" as="geometry" />
        </mxCell>
        <mxCell id="yl5XS7yj3IDsIzwmvnov-4" value="&lt;b&gt;&lt;font style=&quot;font-size: 18px;&quot;&gt;&amp;nbsp;DATA DEPENDENCE&lt;/font&gt;&lt;/b&gt;" style="text;html=1;align=center;verticalAlign=middle;whiteSpace=wrap;rounded=0;" vertex="1" parent="1">
          <mxGeometry x="910" y="30" width="260" height="30" as="geometry" />
        </mxCell>
        <mxCell id="yl5XS7yj3IDsIzwmvnov-5" value="&lt;pre id=&quot;yui_3_18_1_1_1743842538325_100&quot;&gt;&lt;code class=&quot;language-java&quot;&gt;if (n == 0) return;&lt;/code&gt;&lt;/pre&gt;" style="ellipse;whiteSpace=wrap;html=1;" vertex="1" parent="1">
          <mxGeometry x="867" y="200" width="190" height="80" as="geometry" />
        </mxCell>
        <mxCell id="yl5XS7yj3IDsIzwmvnov-6" value="C" style="ellipse;whiteSpace=wrap;html=1;" vertex="1" parent="1">
          <mxGeometry x="827" y="220" width="40" height="40" as="geometry" />
        </mxCell>
        <mxCell id="yl5XS7yj3IDsIzwmvnov-7" value="" style="endArrow=classic;html=1;rounded=0;exitX=0.037;exitY=0.693;exitDx=0;exitDy=0;entryX=0.5;entryY=0;entryDx=0;entryDy=0;fontSize=14;exitPerimeter=0;" edge="1" parent="1" source="yl5XS7yj3IDsIzwmvnov-2" target="yl5XS7yj3IDsIzwmvnov-5">
          <mxGeometry width="50" height="50" relative="1" as="geometry">
            <mxPoint x="860" y="420" as="sourcePoint" />
            <mxPoint x="910" y="370" as="targetPoint" />
          </mxGeometry>
        </mxCell>
        <mxCell id="yl5XS7yj3IDsIzwmvnov-9" value="&lt;div&gt;&lt;b&gt;n&lt;/b&gt;&lt;/div&gt;" style="edgeLabel;html=1;align=center;verticalAlign=middle;resizable=0;points=[];fontSize=14;" vertex="1" connectable="0" parent="yl5XS7yj3IDsIzwmvnov-7">
          <mxGeometry x="-0.0341" y="2" relative="1" as="geometry">
            <mxPoint y="1" as="offset" />
          </mxGeometry>
        </mxCell>
        <mxCell id="yl5XS7yj3IDsIzwmvnov-11" value="&lt;pre id=&quot;yui_3_18_1_1_1743842538325_100&quot;&gt;&lt;code class=&quot;language-java&quot;&gt;int max = arr[0];&lt;/code&gt;&lt;/pre&gt;" style="ellipse;whiteSpace=wrap;html=1;" vertex="1" parent="1">
          <mxGeometry x="1420" y="200" width="190" height="80" as="geometry" />
        </mxCell>
        <mxCell id="yl5XS7yj3IDsIzwmvnov-12" value="D" style="ellipse;whiteSpace=wrap;html=1;" vertex="1" parent="1">
          <mxGeometry x="1380" y="220" width="40" height="40" as="geometry" />
        </mxCell>
        <mxCell id="yl5XS7yj3IDsIzwmvnov-16" value="" style="endArrow=classic;html=1;rounded=0;exitX=1;exitY=1;exitDx=0;exitDy=0;entryX=0.5;entryY=0;entryDx=0;entryDy=0;" edge="1" parent="1" source="yl5XS7yj3IDsIzwmvnov-80" target="yl5XS7yj3IDsIzwmvnov-11">
          <mxGeometry width="50" height="50" relative="1" as="geometry">
            <mxPoint x="860" y="420" as="sourcePoint" />
            <mxPoint x="910" y="370" as="targetPoint" />
          </mxGeometry>
        </mxCell>
        <mxCell id="yl5XS7yj3IDsIzwmvnov-17" value="&lt;b&gt;arr&lt;/b&gt;" style="edgeLabel;html=1;align=center;verticalAlign=middle;resizable=0;points=[];fontSize=14;" vertex="1" connectable="0" parent="yl5XS7yj3IDsIzwmvnov-16">
          <mxGeometry x="0.0318" y="-1" relative="1" as="geometry">
            <mxPoint y="1" as="offset" />
          </mxGeometry>
        </mxCell>
        <mxCell id="yl5XS7yj3IDsIzwmvnov-18" value="&lt;pre id=&quot;yui_3_18_1_1_1743842538325_100&quot;&gt;&lt;code class=&quot;language-java&quot;&gt;for (int i = 1; i &amp;lt; n; i++) {&lt;span style=&quot;white-space: pre;&quot;&gt;&#x9;&lt;/span&gt;&lt;/code&gt;&lt;/pre&gt;" style="ellipse;whiteSpace=wrap;html=1;" vertex="1" parent="1">
          <mxGeometry x="1260" y="330" width="240" height="80" as="geometry" />
        </mxCell>
        <mxCell id="yl5XS7yj3IDsIzwmvnov-19" value="E" style="ellipse;whiteSpace=wrap;html=1;" vertex="1" parent="1">
          <mxGeometry x="1220" y="350" width="40" height="40" as="geometry" />
        </mxCell>
        <mxCell id="yl5XS7yj3IDsIzwmvnov-20" value="" style="endArrow=classic;html=1;rounded=0;exitX=0.683;exitY=0.962;exitDx=0;exitDy=0;exitPerimeter=0;entryX=0.5;entryY=0;entryDx=0;entryDy=0;" edge="1" parent="1" source="yl5XS7yj3IDsIzwmvnov-2" target="yl5XS7yj3IDsIzwmvnov-18">
          <mxGeometry width="50" height="50" relative="1" as="geometry">
            <mxPoint x="860" y="420" as="sourcePoint" />
            <mxPoint x="910" y="370" as="targetPoint" />
          </mxGeometry>
        </mxCell>
        <mxCell id="yl5XS7yj3IDsIzwmvnov-21" value="n" style="edgeLabel;html=1;align=center;verticalAlign=middle;resizable=0;points=[];fontStyle=1;fontSize=14;" vertex="1" connectable="0" parent="yl5XS7yj3IDsIzwmvnov-20">
          <mxGeometry x="0.3167" y="2" relative="1" as="geometry">
            <mxPoint x="52" y="41" as="offset" />
          </mxGeometry>
        </mxCell>
        <mxCell id="yl5XS7yj3IDsIzwmvnov-22" value="" style="curved=1;endArrow=classic;html=1;rounded=0;exitX=1;exitY=1;exitDx=0;exitDy=0;entryX=1;entryY=0.5;entryDx=0;entryDy=0;" edge="1" parent="1" source="yl5XS7yj3IDsIzwmvnov-18" target="yl5XS7yj3IDsIzwmvnov-18">
          <mxGeometry width="50" height="50" relative="1" as="geometry">
            <mxPoint x="860" y="420" as="sourcePoint" />
            <mxPoint x="910" y="370" as="targetPoint" />
            <Array as="points">
              <mxPoint x="1540" y="420" />
              <mxPoint x="1580" y="350" />
            </Array>
          </mxGeometry>
        </mxCell>
        <mxCell id="yl5XS7yj3IDsIzwmvnov-23" value="&lt;b&gt;i&lt;/b&gt;" style="edgeLabel;html=1;align=center;verticalAlign=middle;resizable=0;points=[];fontSize=14;" vertex="1" connectable="0" parent="yl5XS7yj3IDsIzwmvnov-22">
          <mxGeometry x="-0.2232" y="8" relative="1" as="geometry">
            <mxPoint y="1" as="offset" />
          </mxGeometry>
        </mxCell>
        <mxCell id="yl5XS7yj3IDsIzwmvnov-24" value="&lt;pre id=&quot;yui_3_18_1_1_1743842538325_100&quot;&gt;&lt;code class=&quot;language-java&quot;&gt;  if (arr[i] &amp;gt; max) {&lt;/code&gt;&lt;/pre&gt;" style="ellipse;whiteSpace=wrap;html=1;" vertex="1" parent="1">
          <mxGeometry x="1220" y="460" width="160" height="80" as="geometry" />
        </mxCell>
        <mxCell id="yl5XS7yj3IDsIzwmvnov-25" value="F" style="ellipse;whiteSpace=wrap;html=1;" vertex="1" parent="1">
          <mxGeometry x="1180" y="480" width="40" height="40" as="geometry" />
        </mxCell>
        <mxCell id="yl5XS7yj3IDsIzwmvnov-26" value="" style="endArrow=classic;html=1;rounded=0;exitX=0;exitY=1;exitDx=0;exitDy=0;entryX=0.5;entryY=0;entryDx=0;entryDy=0;" edge="1" parent="1" source="yl5XS7yj3IDsIzwmvnov-18" target="yl5XS7yj3IDsIzwmvnov-24">
          <mxGeometry width="50" height="50" relative="1" as="geometry">
            <mxPoint x="1270" y="330" as="sourcePoint" />
            <mxPoint x="1320" y="280" as="targetPoint" />
          </mxGeometry>
        </mxCell>
        <mxCell id="yl5XS7yj3IDsIzwmvnov-27" value="&lt;font style=&quot;font-size: 14px;&quot;&gt;&lt;b&gt;i&lt;/b&gt;&lt;/font&gt;" style="edgeLabel;html=1;align=center;verticalAlign=middle;resizable=0;points=[];" vertex="1" connectable="0" parent="yl5XS7yj3IDsIzwmvnov-26">
          <mxGeometry x="-0.0741" y="3" relative="1" as="geometry">
            <mxPoint as="offset" />
          </mxGeometry>
        </mxCell>
        <mxCell id="yl5XS7yj3IDsIzwmvnov-28" value="" style="endArrow=classic;html=1;rounded=0;exitX=0.567;exitY=1.006;exitDx=0;exitDy=0;exitPerimeter=0;entryX=0;entryY=0;entryDx=0;entryDy=0;" edge="1" parent="1" source="yl5XS7yj3IDsIzwmvnov-80" target="yl5XS7yj3IDsIzwmvnov-24">
          <mxGeometry width="50" height="50" relative="1" as="geometry">
            <mxPoint x="1270" y="330" as="sourcePoint" />
            <mxPoint x="1320" y="280" as="targetPoint" />
            <Array as="points">
              <mxPoint x="1230" y="290" />
              <mxPoint x="1210" y="370" />
              <mxPoint x="1220" y="420" />
            </Array>
          </mxGeometry>
        </mxCell>
        <mxCell id="yl5XS7yj3IDsIzwmvnov-30" value="&lt;b&gt;&lt;font style=&quot;font-size: 14px;&quot;&gt;arr&lt;/font&gt;&lt;/b&gt;" style="edgeLabel;html=1;align=center;verticalAlign=middle;resizable=0;points=[];" vertex="1" connectable="0" parent="yl5XS7yj3IDsIzwmvnov-28">
          <mxGeometry x="-0.1145" y="1" relative="1" as="geometry">
            <mxPoint x="-79" y="161" as="offset" />
          </mxGeometry>
        </mxCell>
        <mxCell id="yl5XS7yj3IDsIzwmvnov-31" value="" style="curved=1;endArrow=classic;html=1;rounded=0;exitX=0.5;exitY=1;exitDx=0;exitDy=0;entryX=1;entryY=0.5;entryDx=0;entryDy=0;" edge="1" parent="1" source="yl5XS7yj3IDsIzwmvnov-11" target="yl5XS7yj3IDsIzwmvnov-24">
          <mxGeometry width="50" height="50" relative="1" as="geometry">
            <mxPoint x="1270" y="330" as="sourcePoint" />
            <mxPoint x="1320" y="280" as="targetPoint" />
            <Array as="points">
              <mxPoint x="1610" y="380" />
              <mxPoint x="1530" y="500" />
            </Array>
          </mxGeometry>
        </mxCell>
        <mxCell id="yl5XS7yj3IDsIzwmvnov-32" value="&lt;b&gt;&lt;font style=&quot;font-size: 14px;&quot;&gt;max&lt;/font&gt;&lt;/b&gt;" style="edgeLabel;html=1;align=center;verticalAlign=middle;resizable=0;points=[];" vertex="1" connectable="0" parent="yl5XS7yj3IDsIzwmvnov-31">
          <mxGeometry x="0.7565" y="1" relative="1" as="geometry">
            <mxPoint x="50" y="-11" as="offset" />
          </mxGeometry>
        </mxCell>
        <mxCell id="yl5XS7yj3IDsIzwmvnov-33" value="&lt;pre id=&quot;yui_3_18_1_1_1743842538325_100&quot;&gt;&lt;code class=&quot;language-java&quot;&gt; max = arr[i];&lt;/code&gt;&lt;/pre&gt;" style="ellipse;whiteSpace=wrap;html=1;" vertex="1" parent="1">
          <mxGeometry x="1240" y="570" width="160" height="80" as="geometry" />
        </mxCell>
        <mxCell id="yl5XS7yj3IDsIzwmvnov-34" value="G" style="ellipse;whiteSpace=wrap;html=1;" vertex="1" parent="1">
          <mxGeometry x="1200" y="590" width="40" height="40" as="geometry" />
        </mxCell>
        <mxCell id="yl5XS7yj3IDsIzwmvnov-35" value="" style="endArrow=classic;html=1;rounded=0;exitX=1;exitY=0;exitDx=0;exitDy=0;entryX=1;entryY=1;entryDx=0;entryDy=0;" edge="1" parent="1" source="yl5XS7yj3IDsIzwmvnov-33" target="yl5XS7yj3IDsIzwmvnov-24">
          <mxGeometry width="50" height="50" relative="1" as="geometry">
            <mxPoint x="1250" y="410" as="sourcePoint" />
            <mxPoint x="1300" y="360" as="targetPoint" />
          </mxGeometry>
        </mxCell>
        <mxCell id="yl5XS7yj3IDsIzwmvnov-36" value="&lt;font style=&quot;font-size: 14px;&quot;&gt;&lt;b&gt;max&lt;/b&gt;&lt;/font&gt;" style="edgeLabel;html=1;align=center;verticalAlign=middle;resizable=0;points=[];" vertex="1" connectable="0" parent="yl5XS7yj3IDsIzwmvnov-35">
          <mxGeometry x="-0.2577" y="-2" relative="1" as="geometry">
            <mxPoint as="offset" />
          </mxGeometry>
        </mxCell>
        <mxCell id="yl5XS7yj3IDsIzwmvnov-37" value="" style="curved=1;endArrow=classic;html=1;rounded=0;exitX=0.5;exitY=1;exitDx=0;exitDy=0;entryX=1;entryY=0.5;entryDx=0;entryDy=0;" edge="1" parent="1" source="yl5XS7yj3IDsIzwmvnov-18" target="yl5XS7yj3IDsIzwmvnov-33">
          <mxGeometry width="50" height="50" relative="1" as="geometry">
            <mxPoint x="1250" y="410" as="sourcePoint" />
            <mxPoint x="1300" y="360" as="targetPoint" />
            <Array as="points">
              <mxPoint x="1420" y="450" />
              <mxPoint x="1450" y="560" />
            </Array>
          </mxGeometry>
        </mxCell>
        <mxCell id="yl5XS7yj3IDsIzwmvnov-38" value="&lt;font style=&quot;font-size: 14px;&quot;&gt;&lt;b&gt;i&lt;/b&gt;&lt;/font&gt;" style="edgeLabel;html=1;align=center;verticalAlign=middle;resizable=0;points=[];" vertex="1" connectable="0" parent="yl5XS7yj3IDsIzwmvnov-37">
          <mxGeometry x="0.5105" y="-3" relative="1" as="geometry">
            <mxPoint as="offset" />
          </mxGeometry>
        </mxCell>
        <mxCell id="yl5XS7yj3IDsIzwmvnov-39" value="" style="curved=1;endArrow=classic;html=1;rounded=0;exitX=0.303;exitY=0.918;exitDx=0;exitDy=0;exitPerimeter=0;entryX=0;entryY=0;entryDx=0;entryDy=0;" edge="1" parent="1" source="yl5XS7yj3IDsIzwmvnov-80" target="yl5XS7yj3IDsIzwmvnov-33">
          <mxGeometry width="50" height="50" relative="1" as="geometry">
            <mxPoint x="1250" y="450" as="sourcePoint" />
            <mxPoint x="1300" y="400" as="targetPoint" />
            <Array as="points">
              <mxPoint x="1170" y="260" />
              <mxPoint x="1150" y="560" />
            </Array>
          </mxGeometry>
        </mxCell>
        <mxCell id="yl5XS7yj3IDsIzwmvnov-40" value="&lt;b&gt;&lt;font style=&quot;font-size: 14px;&quot;&gt;arr&lt;/font&gt;&lt;/b&gt;" style="edgeLabel;html=1;align=center;verticalAlign=middle;resizable=0;points=[];" vertex="1" connectable="0" parent="yl5XS7yj3IDsIzwmvnov-39">
          <mxGeometry x="0.8444" y="4" relative="1" as="geometry">
            <mxPoint as="offset" />
          </mxGeometry>
        </mxCell>
        <mxCell id="yl5XS7yj3IDsIzwmvnov-42" value="&lt;pre id=&quot;yui_3_18_1_1_1743842538325_100&quot;&gt;&lt;code class=&quot;language-java&quot;&gt;for (int exp = 1; max / exp &amp;gt; 0; exp *= 10) {&lt;/code&gt;&lt;/pre&gt;" style="ellipse;whiteSpace=wrap;html=1;" vertex="1" parent="1">
          <mxGeometry x="1230" y="720" width="320" height="80" as="geometry" />
        </mxCell>
        <mxCell id="yl5XS7yj3IDsIzwmvnov-43" value="H" style="ellipse;whiteSpace=wrap;html=1;" vertex="1" parent="1">
          <mxGeometry x="1190" y="740" width="40" height="40" as="geometry" />
        </mxCell>
        <mxCell id="yl5XS7yj3IDsIzwmvnov-45" value="" style="curved=1;endArrow=classic;html=1;rounded=0;exitX=1;exitY=1;exitDx=0;exitDy=0;entryX=1;entryY=0.5;entryDx=0;entryDy=0;" edge="1" parent="1" source="yl5XS7yj3IDsIzwmvnov-42" target="yl5XS7yj3IDsIzwmvnov-42">
          <mxGeometry width="50" height="50" relative="1" as="geometry">
            <mxPoint x="1400" y="660" as="sourcePoint" />
            <mxPoint x="1450" y="610" as="targetPoint" />
            <Array as="points">
              <mxPoint x="1570" y="800" />
              <mxPoint x="1630" y="750" />
            </Array>
          </mxGeometry>
        </mxCell>
        <mxCell id="yl5XS7yj3IDsIzwmvnov-47" value="&lt;font style=&quot;font-size: 14px;&quot;&gt;&lt;b&gt;exp&lt;/b&gt;&lt;/font&gt;" style="edgeLabel;html=1;align=center;verticalAlign=middle;resizable=0;points=[];" vertex="1" connectable="0" parent="yl5XS7yj3IDsIzwmvnov-45">
          <mxGeometry x="-0.2604" y="8" relative="1" as="geometry">
            <mxPoint y="1" as="offset" />
          </mxGeometry>
        </mxCell>
        <mxCell id="yl5XS7yj3IDsIzwmvnov-48" value="" style="curved=1;endArrow=classic;html=1;rounded=0;exitX=0.5;exitY=1;exitDx=0;exitDy=0;entryX=0.588;entryY=-0.014;entryDx=0;entryDy=0;entryPerimeter=0;" edge="1" parent="1" source="yl5XS7yj3IDsIzwmvnov-33" target="yl5XS7yj3IDsIzwmvnov-42">
          <mxGeometry width="50" height="50" relative="1" as="geometry">
            <mxPoint x="1080" y="590" as="sourcePoint" />
            <mxPoint x="1130" y="540" as="targetPoint" />
            <Array as="points">
              <mxPoint x="1350" y="670" />
            </Array>
          </mxGeometry>
        </mxCell>
        <mxCell id="yl5XS7yj3IDsIzwmvnov-49" value="&lt;font style=&quot;font-size: 14px;&quot;&gt;&lt;b&gt;max&lt;/b&gt;&lt;/font&gt;" style="edgeLabel;html=1;align=center;verticalAlign=middle;resizable=0;points=[];" vertex="1" connectable="0" parent="yl5XS7yj3IDsIzwmvnov-48">
          <mxGeometry x="0.5055" y="6" relative="1" as="geometry">
            <mxPoint y="-11" as="offset" />
          </mxGeometry>
        </mxCell>
        <mxCell id="yl5XS7yj3IDsIzwmvnov-50" value="&lt;pre id=&quot;yui_3_18_1_1_1743842538325_100&quot;&gt;&lt;code class=&quot;language-java&quot;&gt;int[] output = new int[n];&lt;/code&gt;&lt;/pre&gt;" style="ellipse;whiteSpace=wrap;html=1;" vertex="1" parent="1">
          <mxGeometry x="867" y="300" width="190" height="80" as="geometry" />
        </mxCell>
        <mxCell id="yl5XS7yj3IDsIzwmvnov-51" value="I" style="ellipse;whiteSpace=wrap;html=1;" vertex="1" parent="1">
          <mxGeometry x="827" y="320" width="40" height="40" as="geometry" />
        </mxCell>
        <mxCell id="yl5XS7yj3IDsIzwmvnov-52" value="" style="curved=1;endArrow=classic;html=1;rounded=0;exitX=0;exitY=1;exitDx=0;exitDy=0;entryX=1;entryY=0;entryDx=0;entryDy=0;" edge="1" parent="1" source="yl5XS7yj3IDsIzwmvnov-2" target="yl5XS7yj3IDsIzwmvnov-50">
          <mxGeometry width="50" height="50" relative="1" as="geometry">
            <mxPoint x="930" y="400" as="sourcePoint" />
            <mxPoint x="980" y="350" as="targetPoint" />
            <Array as="points">
              <mxPoint x="1140" y="260" />
            </Array>
          </mxGeometry>
        </mxCell>
        <mxCell id="yl5XS7yj3IDsIzwmvnov-53" value="&lt;font style=&quot;font-size: 14px;&quot;&gt;&lt;b&gt;n&lt;/b&gt;&lt;/font&gt;" style="edgeLabel;html=1;align=center;verticalAlign=middle;resizable=0;points=[];" vertex="1" connectable="0" parent="yl5XS7yj3IDsIzwmvnov-52">
          <mxGeometry x="0.8258" relative="1" as="geometry">
            <mxPoint as="offset" />
          </mxGeometry>
        </mxCell>
        <mxCell id="yl5XS7yj3IDsIzwmvnov-54" value="&lt;pre id=&quot;yui_3_18_1_1_1743842538325_100&quot;&gt;&lt;code class=&quot;language-java&quot;&gt;int[] count = new int[10];&lt;/code&gt;&lt;/pre&gt;" style="ellipse;whiteSpace=wrap;html=1;" vertex="1" parent="1">
          <mxGeometry x="867" y="390" width="190" height="80" as="geometry" />
        </mxCell>
        <mxCell id="yl5XS7yj3IDsIzwmvnov-55" value="J" style="ellipse;whiteSpace=wrap;html=1;" vertex="1" parent="1">
          <mxGeometry x="827" y="410" width="40" height="40" as="geometry" />
        </mxCell>
        <mxCell id="yl5XS7yj3IDsIzwmvnov-57" value="&lt;pre id=&quot;yui_3_18_1_1_1743842538325_100&quot;&gt;&lt;code class=&quot;language-java&quot;&gt; for (int i = 0; i &amp;lt; 10; i++)&lt;/code&gt;&lt;/pre&gt;" style="ellipse;whiteSpace=wrap;html=1;" vertex="1" parent="1">
          <mxGeometry x="867" y="490" width="203" height="80" as="geometry" />
        </mxCell>
        <mxCell id="yl5XS7yj3IDsIzwmvnov-58" value="K" style="ellipse;whiteSpace=wrap;html=1;" vertex="1" parent="1">
          <mxGeometry x="827" y="510" width="40" height="40" as="geometry" />
        </mxCell>
        <mxCell id="yl5XS7yj3IDsIzwmvnov-59" value="" style="curved=1;endArrow=classic;html=1;rounded=0;exitX=1;exitY=0.5;exitDx=0;exitDy=0;entryX=1;entryY=0;entryDx=0;entryDy=0;" edge="1" parent="1" source="yl5XS7yj3IDsIzwmvnov-57" target="yl5XS7yj3IDsIzwmvnov-57">
          <mxGeometry width="50" height="50" relative="1" as="geometry">
            <mxPoint x="1020" y="460" as="sourcePoint" />
            <mxPoint x="1070" y="410" as="targetPoint" />
            <Array as="points">
              <mxPoint x="1100" y="510" />
              <mxPoint x="1060" y="450" />
            </Array>
          </mxGeometry>
        </mxCell>
        <mxCell id="yl5XS7yj3IDsIzwmvnov-61" value="&lt;b&gt;&lt;font style=&quot;font-size: 14px;&quot;&gt;i&lt;/font&gt;&lt;/b&gt;" style="edgeLabel;html=1;align=center;verticalAlign=middle;resizable=0;points=[];" vertex="1" connectable="0" parent="yl5XS7yj3IDsIzwmvnov-59">
          <mxGeometry x="-0.7846" relative="1" as="geometry">
            <mxPoint as="offset" />
          </mxGeometry>
        </mxCell>
        <mxCell id="yl5XS7yj3IDsIzwmvnov-62" value="&lt;pre id=&quot;yui_3_18_1_1_1743842538325_100&quot;&gt;&lt;code class=&quot;language-java&quot;&gt;count[i] = 0;&lt;/code&gt;&lt;/pre&gt;" style="ellipse;whiteSpace=wrap;html=1;" vertex="1" parent="1">
          <mxGeometry x="867" y="590" width="133" height="80" as="geometry" />
        </mxCell>
        <mxCell id="yl5XS7yj3IDsIzwmvnov-63" value="L" style="ellipse;whiteSpace=wrap;html=1;" vertex="1" parent="1">
          <mxGeometry x="827" y="610" width="40" height="40" as="geometry" />
        </mxCell>
        <mxCell id="yl5XS7yj3IDsIzwmvnov-64" value="" style="endArrow=classic;html=1;rounded=0;exitX=0;exitY=1;exitDx=0;exitDy=0;entryX=0;entryY=0;entryDx=0;entryDy=0;" edge="1" parent="1" source="yl5XS7yj3IDsIzwmvnov-57" target="yl5XS7yj3IDsIzwmvnov-62">
          <mxGeometry width="50" height="50" relative="1" as="geometry">
            <mxPoint x="930" y="520" as="sourcePoint" />
            <mxPoint x="980" y="470" as="targetPoint" />
          </mxGeometry>
        </mxCell>
        <mxCell id="yl5XS7yj3IDsIzwmvnov-65" value="&lt;font style=&quot;font-size: 14px;&quot;&gt;&lt;b&gt;i&lt;/b&gt;&lt;/font&gt;" style="edgeLabel;html=1;align=center;verticalAlign=middle;resizable=0;points=[];" vertex="1" connectable="0" parent="yl5XS7yj3IDsIzwmvnov-64">
          <mxGeometry x="-0.0226" y="3" relative="1" as="geometry">
            <mxPoint as="offset" />
          </mxGeometry>
        </mxCell>
        <mxCell id="yl5XS7yj3IDsIzwmvnov-66" value="&lt;pre id=&quot;yui_3_18_1_1_1743842538325_100&quot;&gt;&lt;code class=&quot;language-java&quot;&gt;for (int i = 0; i &amp;lt; n; i++)&lt;/code&gt;&lt;/pre&gt;" style="ellipse;whiteSpace=wrap;html=1;" vertex="1" parent="1">
          <mxGeometry x="890" y="680" width="203" height="80" as="geometry" />
        </mxCell>
        <mxCell id="yl5XS7yj3IDsIzwmvnov-67" value="M" style="ellipse;whiteSpace=wrap;html=1;" vertex="1" parent="1">
          <mxGeometry x="850" y="700" width="40" height="40" as="geometry" />
        </mxCell>
        <mxCell id="yl5XS7yj3IDsIzwmvnov-68" value="" style="curved=1;endArrow=classic;html=1;rounded=0;exitX=0.724;exitY=0.962;exitDx=0;exitDy=0;entryX=1;entryY=0;entryDx=0;entryDy=0;exitPerimeter=0;" edge="1" parent="1" source="yl5XS7yj3IDsIzwmvnov-11" target="yl5XS7yj3IDsIzwmvnov-42">
          <mxGeometry width="50" height="50" relative="1" as="geometry">
            <mxPoint x="770" y="440" as="sourcePoint" />
            <mxPoint x="820" y="390" as="targetPoint" />
            <Array as="points">
              <mxPoint x="1610" y="400" />
              <mxPoint x="1582" y="570" />
            </Array>
          </mxGeometry>
        </mxCell>
        <mxCell id="yl5XS7yj3IDsIzwmvnov-69" value="&lt;font style=&quot;font-size: 14px;&quot;&gt;&lt;b&gt;max&lt;/b&gt;&lt;/font&gt;" style="edgeLabel;html=1;align=center;verticalAlign=middle;resizable=0;points=[];" vertex="1" connectable="0" parent="yl5XS7yj3IDsIzwmvnov-68">
          <mxGeometry x="0.5362" y="-4" relative="1" as="geometry">
            <mxPoint as="offset" />
          </mxGeometry>
        </mxCell>
        <mxCell id="yl5XS7yj3IDsIzwmvnov-70" value="" style="curved=1;endArrow=classic;html=1;rounded=0;entryX=0.5;entryY=0;entryDx=0;entryDy=0;exitX=0.382;exitY=0.976;exitDx=0;exitDy=0;exitPerimeter=0;" edge="1" parent="1" source="yl5XS7yj3IDsIzwmvnov-2" target="yl5XS7yj3IDsIzwmvnov-66">
          <mxGeometry width="50" height="50" relative="1" as="geometry">
            <mxPoint x="1046" y="150" as="sourcePoint" />
            <mxPoint x="820" y="390" as="targetPoint" />
            <Array as="points">
              <mxPoint x="1130" y="360" />
              <mxPoint x="1100" y="640" />
            </Array>
          </mxGeometry>
        </mxCell>
        <mxCell id="yl5XS7yj3IDsIzwmvnov-71" value="&lt;font style=&quot;font-size: 14px;&quot;&gt;&lt;b&gt;n&lt;/b&gt;&lt;/font&gt;" style="edgeLabel;html=1;align=center;verticalAlign=middle;resizable=0;points=[];" vertex="1" connectable="0" parent="yl5XS7yj3IDsIzwmvnov-70">
          <mxGeometry x="0.8483" y="-5" relative="1" as="geometry">
            <mxPoint x="-1" as="offset" />
          </mxGeometry>
        </mxCell>
        <mxCell id="yl5XS7yj3IDsIzwmvnov-72" value="&lt;pre id=&quot;yui_3_18_1_1_1743842538325_100&quot;&gt;&lt;code class=&quot;language-java&quot;&gt; count[(arr[i] / exp) % 10]++;&lt;span style=&quot;white-space: pre;&quot;&gt;&#x9;&lt;/span&gt;&lt;/code&gt;&lt;/pre&gt;" style="ellipse;whiteSpace=wrap;html=1;" vertex="1" parent="1">
          <mxGeometry x="866.71" y="830" width="213" height="80" as="geometry" />
        </mxCell>
        <mxCell id="yl5XS7yj3IDsIzwmvnov-73" value="N" style="ellipse;whiteSpace=wrap;html=1;" vertex="1" parent="1">
          <mxGeometry x="826.71" y="850" width="40" height="40" as="geometry" />
        </mxCell>
        <mxCell id="yl5XS7yj3IDsIzwmvnov-74" value="" style="endArrow=classic;html=1;rounded=0;exitX=0.5;exitY=1;exitDx=0;exitDy=0;entryX=0;entryY=0;entryDx=0;entryDy=0;" edge="1" parent="1" source="yl5XS7yj3IDsIzwmvnov-66" target="yl5XS7yj3IDsIzwmvnov-72">
          <mxGeometry width="50" height="50" relative="1" as="geometry">
            <mxPoint x="770" y="530" as="sourcePoint" />
            <mxPoint x="820" y="480" as="targetPoint" />
          </mxGeometry>
        </mxCell>
        <mxCell id="yl5XS7yj3IDsIzwmvnov-75" value="&lt;font style=&quot;font-size: 14px;&quot;&gt;&lt;b&gt;i&lt;/b&gt;&lt;/font&gt;" style="edgeLabel;html=1;align=center;verticalAlign=middle;resizable=0;points=[];" vertex="1" connectable="0" parent="yl5XS7yj3IDsIzwmvnov-74">
          <mxGeometry x="-0.0627" y="-2" relative="1" as="geometry">
            <mxPoint as="offset" />
          </mxGeometry>
        </mxCell>
        <mxCell id="yl5XS7yj3IDsIzwmvnov-76" value="" style="endArrow=classic;html=1;rounded=0;exitX=0;exitY=1;exitDx=0;exitDy=0;entryX=1;entryY=0;entryDx=0;entryDy=0;" edge="1" parent="1" source="yl5XS7yj3IDsIzwmvnov-42" target="yl5XS7yj3IDsIzwmvnov-72">
          <mxGeometry width="50" height="50" relative="1" as="geometry">
            <mxPoint x="770" y="670" as="sourcePoint" />
            <mxPoint x="820" y="620" as="targetPoint" />
          </mxGeometry>
        </mxCell>
        <mxCell id="yl5XS7yj3IDsIzwmvnov-77" value="&lt;font style=&quot;font-size: 14px;&quot;&gt;&lt;b&gt;exp&lt;/b&gt;&lt;/font&gt;" style="edgeLabel;html=1;align=center;verticalAlign=middle;resizable=0;points=[];" vertex="1" connectable="0" parent="yl5XS7yj3IDsIzwmvnov-76">
          <mxGeometry x="0.1178" y="-3" relative="1" as="geometry">
            <mxPoint as="offset" />
          </mxGeometry>
        </mxCell>
        <mxCell id="yl5XS7yj3IDsIzwmvnov-78" value="" style="curved=1;endArrow=classic;html=1;rounded=0;exitX=0;exitY=1;exitDx=0;exitDy=0;entryX=0.5;entryY=0;entryDx=0;entryDy=0;" edge="1" parent="1" source="yl5XS7yj3IDsIzwmvnov-80" target="yl5XS7yj3IDsIzwmvnov-72">
          <mxGeometry width="50" height="50" relative="1" as="geometry">
            <mxPoint x="770" y="420" as="sourcePoint" />
            <mxPoint x="820" y="370" as="targetPoint" />
            <Array as="points">
              <mxPoint x="1140" y="240" />
              <mxPoint x="1140" y="440" />
              <mxPoint x="1150" y="780" />
              <mxPoint x="1000" y="790" />
            </Array>
          </mxGeometry>
        </mxCell>
        <mxCell id="yl5XS7yj3IDsIzwmvnov-79" value="&lt;font style=&quot;font-size: 14px;&quot;&gt;&lt;b&gt;arr&lt;/b&gt;&lt;/font&gt;" style="edgeLabel;html=1;align=center;verticalAlign=middle;resizable=0;points=[];" vertex="1" connectable="0" parent="yl5XS7yj3IDsIzwmvnov-78">
          <mxGeometry x="0.8381" relative="1" as="geometry">
            <mxPoint as="offset" />
          </mxGeometry>
        </mxCell>
        <mxCell id="yl5XS7yj3IDsIzwmvnov-80" value="&lt;pre id=&quot;yui_3_18_1_1_1743842538325_100&quot;&gt;&lt;code class=&quot;language-java&quot;&gt;public static int[] radixSort(int arr[]) {&lt;/code&gt;&lt;/pre&gt;" style="ellipse;whiteSpace=wrap;html=1;" vertex="1" parent="1">
          <mxGeometry x="1280" y="80" width="330" height="80" as="geometry" />
        </mxCell>
        <mxCell id="yl5XS7yj3IDsIzwmvnov-81" value="A" style="ellipse;whiteSpace=wrap;html=1;" vertex="1" parent="1">
          <mxGeometry x="1240" y="100" width="40" height="40" as="geometry" />
        </mxCell>
        <mxCell id="yl5XS7yj3IDsIzwmvnov-83" value="" style="curved=1;endArrow=classic;html=1;rounded=0;exitX=1;exitY=1;exitDx=0;exitDy=0;entryX=1;entryY=0.5;entryDx=0;entryDy=0;" edge="1" parent="1" source="yl5XS7yj3IDsIzwmvnov-72" target="yl5XS7yj3IDsIzwmvnov-72">
          <mxGeometry width="50" height="50" relative="1" as="geometry">
            <mxPoint x="860" y="670" as="sourcePoint" />
            <mxPoint x="910" y="620" as="targetPoint" />
            <Array as="points">
              <mxPoint x="1120" y="920" />
              <mxPoint x="1110" y="850" />
            </Array>
          </mxGeometry>
        </mxCell>
        <mxCell id="yl5XS7yj3IDsIzwmvnov-85" value="&lt;font style=&quot;font-size: 14px;&quot;&gt;&lt;b&gt;count&lt;/b&gt;&lt;/font&gt;" style="edgeLabel;html=1;align=center;verticalAlign=middle;resizable=0;points=[];" vertex="1" connectable="0" parent="yl5XS7yj3IDsIzwmvnov-83">
          <mxGeometry x="0.0802" y="4" relative="1" as="geometry">
            <mxPoint as="offset" />
          </mxGeometry>
        </mxCell>
        <mxCell id="yl5XS7yj3IDsIzwmvnov-90" value="" style="curved=1;endArrow=classic;html=1;rounded=0;entryX=0.061;entryY=0.241;entryDx=0;entryDy=0;entryPerimeter=0;exitX=0;exitY=1;exitDx=0;exitDy=0;" edge="1" parent="1" source="yl5XS7yj3IDsIzwmvnov-62" target="yl5XS7yj3IDsIzwmvnov-72">
          <mxGeometry width="50" height="50" relative="1" as="geometry">
            <mxPoint x="860" y="710" as="sourcePoint" />
            <mxPoint x="910" y="660" as="targetPoint" />
            <Array as="points">
              <mxPoint x="830" y="690" />
              <mxPoint x="860" y="800" />
            </Array>
          </mxGeometry>
        </mxCell>
        <mxCell id="yl5XS7yj3IDsIzwmvnov-91" value="&lt;b&gt;&lt;font style=&quot;font-size: 14px;&quot;&gt;count&lt;/font&gt;&lt;/b&gt;" style="edgeLabel;html=1;align=center;verticalAlign=middle;resizable=0;points=[];" vertex="1" connectable="0" parent="yl5XS7yj3IDsIzwmvnov-90">
          <mxGeometry x="0.4649" relative="1" as="geometry">
            <mxPoint as="offset" />
          </mxGeometry>
        </mxCell>
        <mxCell id="yl5XS7yj3IDsIzwmvnov-92" value="" style="curved=1;endArrow=classic;html=1;rounded=0;exitX=1;exitY=1;exitDx=0;exitDy=0;entryX=1;entryY=0;entryDx=0;entryDy=0;" edge="1" parent="1" source="yl5XS7yj3IDsIzwmvnov-66" target="yl5XS7yj3IDsIzwmvnov-66">
          <mxGeometry width="50" height="50" relative="1" as="geometry">
            <mxPoint x="860" y="600" as="sourcePoint" />
            <mxPoint x="910" y="550" as="targetPoint" />
            <Array as="points">
              <mxPoint x="1110" y="750" />
              <mxPoint x="1130" y="670" />
            </Array>
          </mxGeometry>
        </mxCell>
        <mxCell id="yl5XS7yj3IDsIzwmvnov-93" value="&lt;b&gt;&lt;font style=&quot;font-size: 14px;&quot;&gt;i&lt;/font&gt;&lt;/b&gt;" style="edgeLabel;html=1;align=center;verticalAlign=middle;resizable=0;points=[];" vertex="1" connectable="0" parent="yl5XS7yj3IDsIzwmvnov-92">
          <mxGeometry x="0.5503" y="8" relative="1" as="geometry">
            <mxPoint as="offset" />
          </mxGeometry>
        </mxCell>
        <mxCell id="yl5XS7yj3IDsIzwmvnov-94" value="&lt;pre id=&quot;yui_3_18_1_1_1743842538325_100&quot;&gt;&lt;code class=&quot;language-java&quot;&gt;for (int i = 1; i &amp;lt; 10; i++)&lt;/code&gt;&lt;/pre&gt;" style="ellipse;whiteSpace=wrap;html=1;" vertex="1" parent="1">
          <mxGeometry x="1316.02" y="830" width="215" height="80" as="geometry" />
        </mxCell>
        <mxCell id="yl5XS7yj3IDsIzwmvnov-95" value="O" style="ellipse;whiteSpace=wrap;html=1;" vertex="1" parent="1">
          <mxGeometry x="1276.02" y="850" width="40" height="40" as="geometry" />
        </mxCell>
        <mxCell id="yl5XS7yj3IDsIzwmvnov-96" value="" style="curved=1;endArrow=classic;html=1;rounded=0;exitX=1;exitY=1;exitDx=0;exitDy=0;entryX=1;entryY=0.5;entryDx=0;entryDy=0;" edge="1" parent="1" source="yl5XS7yj3IDsIzwmvnov-94" target="yl5XS7yj3IDsIzwmvnov-94">
          <mxGeometry width="50" height="50" relative="1" as="geometry">
            <mxPoint x="860" y="740" as="sourcePoint" />
            <mxPoint x="910" y="690" as="targetPoint" />
            <Array as="points">
              <mxPoint x="1590" y="910" />
              <mxPoint x="1560" y="860" />
            </Array>
          </mxGeometry>
        </mxCell>
        <mxCell id="yl5XS7yj3IDsIzwmvnov-97" value="&lt;b&gt;&lt;font style=&quot;font-size: 14px;&quot;&gt;i&lt;/font&gt;&lt;/b&gt;" style="edgeLabel;html=1;align=center;verticalAlign=middle;resizable=0;points=[];" vertex="1" connectable="0" parent="yl5XS7yj3IDsIzwmvnov-96">
          <mxGeometry x="-0.2732" y="2" relative="1" as="geometry">
            <mxPoint as="offset" />
          </mxGeometry>
        </mxCell>
        <mxCell id="yl5XS7yj3IDsIzwmvnov-98" value="&lt;pre id=&quot;yui_3_18_1_1_1743842538325_100&quot;&gt;&lt;code class=&quot;language-java&quot;&gt;count[i] += count[i - 1];&lt;/code&gt;&lt;/pre&gt;" style="ellipse;whiteSpace=wrap;html=1;" vertex="1" parent="1">
          <mxGeometry x="1230" y="960" width="190" height="80" as="geometry" />
        </mxCell>
        <mxCell id="yl5XS7yj3IDsIzwmvnov-99" value="P" style="ellipse;whiteSpace=wrap;html=1;" vertex="1" parent="1">
          <mxGeometry x="1190" y="980" width="40" height="40" as="geometry" />
        </mxCell>
        <mxCell id="yl5XS7yj3IDsIzwmvnov-101" value="" style="endArrow=classic;html=1;rounded=0;exitX=0.5;exitY=1;exitDx=0;exitDy=0;entryX=0.5;entryY=0;entryDx=0;entryDy=0;" edge="1" parent="1" source="yl5XS7yj3IDsIzwmvnov-94" target="yl5XS7yj3IDsIzwmvnov-98">
          <mxGeometry width="50" height="50" relative="1" as="geometry">
            <mxPoint x="860" y="670" as="sourcePoint" />
            <mxPoint x="910" y="620" as="targetPoint" />
          </mxGeometry>
        </mxCell>
        <mxCell id="yl5XS7yj3IDsIzwmvnov-102" value="&lt;b&gt;&lt;font style=&quot;font-size: 14px;&quot;&gt;i&lt;/font&gt;&lt;/b&gt;" style="edgeLabel;html=1;align=center;verticalAlign=middle;resizable=0;points=[];" vertex="1" connectable="0" parent="yl5XS7yj3IDsIzwmvnov-101">
          <mxGeometry x="-0.16" y="-1" relative="1" as="geometry">
            <mxPoint x="7" y="9" as="offset" />
          </mxGeometry>
        </mxCell>
        <mxCell id="yl5XS7yj3IDsIzwmvnov-103" value="" style="curved=1;endArrow=classic;html=1;rounded=0;exitX=0.5;exitY=1;exitDx=0;exitDy=0;entryX=0;entryY=0;entryDx=0;entryDy=0;" edge="1" parent="1" source="yl5XS7yj3IDsIzwmvnov-72" target="yl5XS7yj3IDsIzwmvnov-98">
          <mxGeometry width="50" height="50" relative="1" as="geometry">
            <mxPoint x="860" y="670" as="sourcePoint" />
            <mxPoint x="910" y="620" as="targetPoint" />
            <Array as="points">
              <mxPoint x="970" y="960" />
              <mxPoint x="1270" y="940" />
            </Array>
          </mxGeometry>
        </mxCell>
        <mxCell id="yl5XS7yj3IDsIzwmvnov-104" value="&lt;b&gt;&lt;font style=&quot;font-size: 14px;&quot;&gt;count&lt;/font&gt;&lt;/b&gt;" style="edgeLabel;html=1;align=center;verticalAlign=middle;resizable=0;points=[];" vertex="1" connectable="0" parent="yl5XS7yj3IDsIzwmvnov-103">
          <mxGeometry x="0.2531" y="5" relative="1" as="geometry">
            <mxPoint x="48" y="16" as="offset" />
          </mxGeometry>
        </mxCell>
        <mxCell id="yl5XS7yj3IDsIzwmvnov-105" value="" style="curved=1;endArrow=classic;html=1;rounded=0;exitX=1;exitY=1;exitDx=0;exitDy=0;entryX=1;entryY=0.5;entryDx=0;entryDy=0;" edge="1" parent="1" source="yl5XS7yj3IDsIzwmvnov-98" target="yl5XS7yj3IDsIzwmvnov-98">
          <mxGeometry width="50" height="50" relative="1" as="geometry">
            <mxPoint x="1077.29" y="740" as="sourcePoint" />
            <mxPoint x="1127.29" y="690" as="targetPoint" />
            <Array as="points">
              <mxPoint x="1420" y="1060" />
              <mxPoint x="1447.29" y="990" />
            </Array>
          </mxGeometry>
        </mxCell>
        <mxCell id="yl5XS7yj3IDsIzwmvnov-106" value="&lt;b&gt;&lt;font style=&quot;font-size: 14px;&quot;&gt;count&lt;/font&gt;&lt;/b&gt;" style="edgeLabel;html=1;align=center;verticalAlign=middle;resizable=0;points=[];" vertex="1" connectable="0" parent="yl5XS7yj3IDsIzwmvnov-105">
          <mxGeometry x="-0.0626" y="-4" relative="1" as="geometry">
            <mxPoint x="35" y="-3" as="offset" />
          </mxGeometry>
        </mxCell>
        <mxCell id="yl5XS7yj3IDsIzwmvnov-107" value="&lt;pre id=&quot;yui_3_18_1_1_1743842538325_100&quot;&gt;&lt;code class=&quot;language-java&quot;&gt; for (int i = n - 1; i &amp;gt;= 0; i--) {&lt;/code&gt;&lt;/pre&gt;" style="ellipse;whiteSpace=wrap;html=1;" vertex="1" parent="1">
          <mxGeometry x="1248" y="1070" width="253.5" height="80" as="geometry" />
        </mxCell>
        <mxCell id="yl5XS7yj3IDsIzwmvnov-108" value="Q" style="ellipse;whiteSpace=wrap;html=1;" vertex="1" parent="1">
          <mxGeometry x="1208" y="1090" width="40" height="40" as="geometry" />
        </mxCell>
        <mxCell id="yl5XS7yj3IDsIzwmvnov-109" value="" style="curved=1;endArrow=classic;html=1;rounded=0;exitX=1;exitY=1;exitDx=0;exitDy=0;entryX=1;entryY=0.5;entryDx=0;entryDy=0;" edge="1" parent="1" source="yl5XS7yj3IDsIzwmvnov-107" target="yl5XS7yj3IDsIzwmvnov-107">
          <mxGeometry width="50" height="50" relative="1" as="geometry">
            <mxPoint x="782" y="680" as="sourcePoint" />
            <mxPoint x="832" y="630" as="targetPoint" />
            <Array as="points">
              <mxPoint x="1572" y="1150" />
              <mxPoint x="1562" y="1100" />
            </Array>
          </mxGeometry>
        </mxCell>
        <mxCell id="yl5XS7yj3IDsIzwmvnov-110" value="&lt;b&gt;&lt;font style=&quot;font-size: 14px;&quot;&gt;i&lt;/font&gt;&lt;/b&gt;" style="edgeLabel;html=1;align=center;verticalAlign=middle;resizable=0;points=[];" vertex="1" connectable="0" parent="yl5XS7yj3IDsIzwmvnov-109">
          <mxGeometry x="-0.2053" y="2" relative="1" as="geometry">
            <mxPoint y="1" as="offset" />
          </mxGeometry>
        </mxCell>
        <mxCell id="yl5XS7yj3IDsIzwmvnov-111" value="&lt;pre id=&quot;yui_3_18_1_1_1743842538325_100&quot;&gt;&lt;code class=&quot;language-java&quot;&gt;int digit = (arr[i] / exp) % 10&lt;/code&gt;&lt;/pre&gt;" style="ellipse;whiteSpace=wrap;html=1;" vertex="1" parent="1">
          <mxGeometry x="1260" y="1230" width="232.11" height="80" as="geometry" />
        </mxCell>
        <mxCell id="yl5XS7yj3IDsIzwmvnov-112" value="R" style="ellipse;whiteSpace=wrap;html=1;" vertex="1" parent="1">
          <mxGeometry x="1220" y="1250" width="40" height="40" as="geometry" />
        </mxCell>
        <mxCell id="yl5XS7yj3IDsIzwmvnov-113" value="" style="endArrow=classic;html=1;rounded=0;exitX=0.5;exitY=1;exitDx=0;exitDy=0;entryX=0.5;entryY=0;entryDx=0;entryDy=0;" edge="1" parent="1" source="yl5XS7yj3IDsIzwmvnov-107" target="yl5XS7yj3IDsIzwmvnov-111">
          <mxGeometry width="50" height="50" relative="1" as="geometry">
            <mxPoint x="1318.1100000000001" y="990" as="sourcePoint" />
            <mxPoint x="1368.1100000000001" y="940" as="targetPoint" />
          </mxGeometry>
        </mxCell>
        <mxCell id="yl5XS7yj3IDsIzwmvnov-119" value="&lt;b&gt;&lt;font style=&quot;font-size: 14px;&quot;&gt;i&lt;/font&gt;&lt;/b&gt;" style="edgeLabel;html=1;align=center;verticalAlign=middle;resizable=0;points=[];" vertex="1" connectable="0" parent="yl5XS7yj3IDsIzwmvnov-113">
          <mxGeometry x="-0.1486" y="4" relative="1" as="geometry">
            <mxPoint as="offset" />
          </mxGeometry>
        </mxCell>
        <mxCell id="yl5XS7yj3IDsIzwmvnov-116" value="" style="curved=1;endArrow=classic;html=1;rounded=0;entryX=1;entryY=0.5;entryDx=0;entryDy=0;exitX=0.923;exitY=0.756;exitDx=0;exitDy=0;exitPerimeter=0;" edge="1" parent="1" source="yl5XS7yj3IDsIzwmvnov-80" target="yl5XS7yj3IDsIzwmvnov-111">
          <mxGeometry width="50" height="50" relative="1" as="geometry">
            <mxPoint x="1390" y="880" as="sourcePoint" />
            <mxPoint x="1440" y="830" as="targetPoint" />
            <Array as="points">
              <mxPoint x="1660" y="150" />
              <mxPoint x="1620" y="770" />
              <mxPoint x="1660" y="1280" />
            </Array>
          </mxGeometry>
        </mxCell>
        <mxCell id="yl5XS7yj3IDsIzwmvnov-122" value="&lt;b&gt;&lt;font style=&quot;font-size: 14px;&quot;&gt;arr&lt;/font&gt;&lt;/b&gt;" style="edgeLabel;html=1;align=center;verticalAlign=middle;resizable=0;points=[];" vertex="1" connectable="0" parent="yl5XS7yj3IDsIzwmvnov-116">
          <mxGeometry x="0.9393" y="-5" relative="1" as="geometry">
            <mxPoint as="offset" />
          </mxGeometry>
        </mxCell>
        <mxCell id="yl5XS7yj3IDsIzwmvnov-120" value="" style="curved=1;endArrow=classic;html=1;rounded=0;exitX=0.759;exitY=0.932;exitDx=0;exitDy=0;exitPerimeter=0;entryX=1;entryY=0;entryDx=0;entryDy=0;" edge="1" parent="1" source="yl5XS7yj3IDsIzwmvnov-42" target="yl5XS7yj3IDsIzwmvnov-111">
          <mxGeometry width="50" height="50" relative="1" as="geometry">
            <mxPoint x="1390" y="930" as="sourcePoint" />
            <mxPoint x="1440" y="880" as="targetPoint" />
            <Array as="points">
              <mxPoint x="1490" y="820" />
              <mxPoint x="1580" y="800" />
              <mxPoint x="1600" y="910" />
              <mxPoint x="1620" y="1190" />
              <mxPoint x="1460" y="1160" />
            </Array>
          </mxGeometry>
        </mxCell>
        <mxCell id="yl5XS7yj3IDsIzwmvnov-121" value="&lt;b&gt;&lt;font style=&quot;font-size: 14px;&quot;&gt;exp&lt;/font&gt;&lt;/b&gt;" style="edgeLabel;html=1;align=center;verticalAlign=middle;resizable=0;points=[];" vertex="1" connectable="0" parent="yl5XS7yj3IDsIzwmvnov-120">
          <mxGeometry x="0.5543" y="-24" relative="1" as="geometry">
            <mxPoint x="-79" y="56" as="offset" />
          </mxGeometry>
        </mxCell>
        <mxCell id="yl5XS7yj3IDsIzwmvnov-123" value="&lt;pre id=&quot;yui_3_18_1_1_1743842538325_100&quot;&gt;&lt;code class=&quot;language-java&quot;&gt; output[count[digit] - 1] = arr[i];&lt;/code&gt;&lt;/pre&gt;" style="ellipse;whiteSpace=wrap;html=1;" vertex="1" parent="1">
          <mxGeometry x="1270" y="1390" width="247" height="80" as="geometry" />
        </mxCell>
        <mxCell id="yl5XS7yj3IDsIzwmvnov-124" value="S" style="ellipse;whiteSpace=wrap;html=1;" vertex="1" parent="1">
          <mxGeometry x="1230" y="1410" width="40" height="40" as="geometry" />
        </mxCell>
        <mxCell id="yl5XS7yj3IDsIzwmvnov-125" value="" style="curved=1;endArrow=classic;html=1;rounded=0;exitX=0;exitY=1;exitDx=0;exitDy=0;entryX=0.5;entryY=0;entryDx=0;entryDy=0;" edge="1" parent="1" source="yl5XS7yj3IDsIzwmvnov-107" target="yl5XS7yj3IDsIzwmvnov-123">
          <mxGeometry width="50" height="50" relative="1" as="geometry">
            <mxPoint x="770" y="1060" as="sourcePoint" />
            <mxPoint x="820" y="1010" as="targetPoint" />
            <Array as="points">
              <mxPoint x="1290" y="1200" />
              <mxPoint x="1170" y="1220" />
              <mxPoint x="1170" y="1340" />
              <mxPoint x="1380" y="1320" />
            </Array>
          </mxGeometry>
        </mxCell>
        <mxCell id="yl5XS7yj3IDsIzwmvnov-126" value="&lt;b&gt;&lt;font style=&quot;font-size: 14px;&quot;&gt;i&lt;/font&gt;&lt;/b&gt;" style="edgeLabel;html=1;align=center;verticalAlign=middle;resizable=0;points=[];" vertex="1" connectable="0" parent="yl5XS7yj3IDsIzwmvnov-125">
          <mxGeometry x="0.806" y="6" relative="1" as="geometry">
            <mxPoint x="-4" y="14" as="offset" />
          </mxGeometry>
        </mxCell>
        <mxCell id="yl5XS7yj3IDsIzwmvnov-127" value="" style="curved=1;endArrow=classic;html=1;rounded=0;exitX=1;exitY=0.5;exitDx=0;exitDy=0;entryX=1;entryY=0;entryDx=0;entryDy=0;" edge="1" parent="1" source="yl5XS7yj3IDsIzwmvnov-80" target="yl5XS7yj3IDsIzwmvnov-123">
          <mxGeometry width="50" height="50" relative="1" as="geometry">
            <mxPoint x="1350" y="560" as="sourcePoint" />
            <mxPoint x="1400" y="510" as="targetPoint" />
            <Array as="points">
              <mxPoint x="1680" y="110" />
              <mxPoint x="1710" y="200" />
              <mxPoint x="1710" y="1110" />
              <mxPoint x="1690" y="1330" />
              <mxPoint x="1490" y="1310" />
            </Array>
          </mxGeometry>
        </mxCell>
        <mxCell id="yl5XS7yj3IDsIzwmvnov-128" value="&lt;b&gt;&lt;font style=&quot;font-size: 14px;&quot;&gt;arr&lt;/font&gt;&lt;/b&gt;" style="edgeLabel;html=1;align=center;verticalAlign=middle;resizable=0;points=[];" vertex="1" connectable="0" parent="yl5XS7yj3IDsIzwmvnov-127">
          <mxGeometry x="0.8992" y="14" relative="1" as="geometry">
            <mxPoint x="-11" y="47" as="offset" />
          </mxGeometry>
        </mxCell>
        <mxCell id="yl5XS7yj3IDsIzwmvnov-129" value="" style="curved=1;endArrow=classic;html=1;rounded=0;exitX=0;exitY=1;exitDx=0;exitDy=0;entryX=0;entryY=0;entryDx=0;entryDy=0;" edge="1" parent="1" source="yl5XS7yj3IDsIzwmvnov-98" target="yl5XS7yj3IDsIzwmvnov-123">
          <mxGeometry width="50" height="50" relative="1" as="geometry">
            <mxPoint x="1350" y="1150" as="sourcePoint" />
            <mxPoint x="1400" y="1100" as="targetPoint" />
            <Array as="points">
              <mxPoint x="1220" y="1060" />
              <mxPoint x="1110" y="1150" />
              <mxPoint x="1170" y="1370" />
              <mxPoint x="1320" y="1350" />
            </Array>
          </mxGeometry>
        </mxCell>
        <mxCell id="yl5XS7yj3IDsIzwmvnov-130" value="&lt;b&gt;&lt;font style=&quot;font-size: 14px;&quot;&gt;count&lt;/font&gt;&lt;/b&gt;" style="edgeLabel;html=1;align=center;verticalAlign=middle;resizable=0;points=[];" vertex="1" connectable="0" parent="yl5XS7yj3IDsIzwmvnov-129">
          <mxGeometry x="0.7149" y="-9" relative="1" as="geometry">
            <mxPoint y="-1" as="offset" />
          </mxGeometry>
        </mxCell>
        <mxCell id="yl5XS7yj3IDsIzwmvnov-131" value="" style="endArrow=classic;html=1;rounded=0;exitX=1;exitY=1;exitDx=0;exitDy=0;entryX=0.75;entryY=0.087;entryDx=0;entryDy=0;entryPerimeter=0;" edge="1" parent="1" source="yl5XS7yj3IDsIzwmvnov-111" target="yl5XS7yj3IDsIzwmvnov-123">
          <mxGeometry width="50" height="50" relative="1" as="geometry">
            <mxPoint x="1350" y="1230" as="sourcePoint" />
            <mxPoint x="1400" y="1180" as="targetPoint" />
          </mxGeometry>
        </mxCell>
        <mxCell id="yl5XS7yj3IDsIzwmvnov-132" value="&lt;b&gt;&lt;font style=&quot;font-size: 14px;&quot;&gt;digit&lt;/font&gt;&lt;/b&gt;" style="edgeLabel;html=1;align=center;verticalAlign=middle;resizable=0;points=[];" vertex="1" connectable="0" parent="yl5XS7yj3IDsIzwmvnov-131">
          <mxGeometry x="0.1667" y="-5" relative="1" as="geometry">
            <mxPoint as="offset" />
          </mxGeometry>
        </mxCell>
        <mxCell id="yl5XS7yj3IDsIzwmvnov-133" value="&lt;pre id=&quot;yui_3_18_1_1_1743842538325_100&quot;&gt;&lt;code class=&quot;language-java&quot;&gt;count[digit]--;&lt;/code&gt;&lt;/pre&gt;" style="ellipse;whiteSpace=wrap;html=1;" vertex="1" parent="1">
          <mxGeometry x="900" y="1320" width="163.5" height="80" as="geometry" />
        </mxCell>
        <mxCell id="yl5XS7yj3IDsIzwmvnov-134" value="T" style="ellipse;whiteSpace=wrap;html=1;" vertex="1" parent="1">
          <mxGeometry x="860" y="1340" width="40" height="40" as="geometry" />
        </mxCell>
        <mxCell id="yl5XS7yj3IDsIzwmvnov-135" value="" style="curved=1;endArrow=classic;html=1;rounded=0;exitX=0.085;exitY=0.771;exitDx=0;exitDy=0;exitPerimeter=0;entryX=0.5;entryY=0;entryDx=0;entryDy=0;" edge="1" parent="1" source="yl5XS7yj3IDsIzwmvnov-98" target="yl5XS7yj3IDsIzwmvnov-133">
          <mxGeometry width="50" height="50" relative="1" as="geometry">
            <mxPoint x="1110" y="1200" as="sourcePoint" />
            <mxPoint x="1160" y="1150" as="targetPoint" />
            <Array as="points">
              <mxPoint x="1180" y="1080" />
              <mxPoint x="1090" y="1080" />
              <mxPoint x="1012" y="1160" />
            </Array>
          </mxGeometry>
        </mxCell>
        <mxCell id="yl5XS7yj3IDsIzwmvnov-136" value="&lt;b&gt;&lt;font style=&quot;font-size: 14px;&quot;&gt;count&lt;/font&gt;&lt;/b&gt;" style="edgeLabel;html=1;align=center;verticalAlign=middle;resizable=0;points=[];" vertex="1" connectable="0" parent="yl5XS7yj3IDsIzwmvnov-135">
          <mxGeometry x="0.5332" y="-1" relative="1" as="geometry">
            <mxPoint x="5" y="62" as="offset" />
          </mxGeometry>
        </mxCell>
        <mxCell id="yl5XS7yj3IDsIzwmvnov-137" value="" style="curved=1;endArrow=classic;html=1;rounded=0;exitX=0;exitY=1;exitDx=0;exitDy=0;entryX=1;entryY=0;entryDx=0;entryDy=0;" edge="1" parent="1" source="yl5XS7yj3IDsIzwmvnov-111" target="yl5XS7yj3IDsIzwmvnov-133">
          <mxGeometry width="50" height="50" relative="1" as="geometry">
            <mxPoint x="1110" y="1200" as="sourcePoint" />
            <mxPoint x="1160" y="1150" as="targetPoint" />
            <Array as="points">
              <mxPoint x="1294" y="1320" />
              <mxPoint x="1150" y="1310" />
            </Array>
          </mxGeometry>
        </mxCell>
        <mxCell id="yl5XS7yj3IDsIzwmvnov-138" value="&lt;b&gt;&lt;font style=&quot;font-size: 14px;&quot;&gt;digit&lt;/font&gt;&lt;/b&gt;" style="edgeLabel;html=1;align=center;verticalAlign=middle;resizable=0;points=[];" vertex="1" connectable="0" parent="yl5XS7yj3IDsIzwmvnov-137">
          <mxGeometry x="0.6144" relative="1" as="geometry">
            <mxPoint x="-13" y="-1" as="offset" />
          </mxGeometry>
        </mxCell>
        <mxCell id="yl5XS7yj3IDsIzwmvnov-139" value="" style="curved=1;endArrow=classic;html=1;rounded=0;exitX=1;exitY=1;exitDx=0;exitDy=0;entryX=1;entryY=0.5;entryDx=0;entryDy=0;" edge="1" parent="1" source="yl5XS7yj3IDsIzwmvnov-133" target="yl5XS7yj3IDsIzwmvnov-133">
          <mxGeometry width="50" height="50" relative="1" as="geometry">
            <mxPoint x="1037" y="1190" as="sourcePoint" />
            <mxPoint x="1087" y="1140" as="targetPoint" />
            <Array as="points">
              <mxPoint x="1097" y="1410" />
            </Array>
          </mxGeometry>
        </mxCell>
        <mxCell id="yl5XS7yj3IDsIzwmvnov-140" value="&lt;b&gt;&lt;font style=&quot;font-size: 14px;&quot;&gt;count&lt;/font&gt;&lt;/b&gt;" style="edgeLabel;html=1;align=center;verticalAlign=middle;resizable=0;points=[];" vertex="1" connectable="0" parent="yl5XS7yj3IDsIzwmvnov-139">
          <mxGeometry x="-0.4622" y="7" relative="1" as="geometry">
            <mxPoint as="offset" />
          </mxGeometry>
        </mxCell>
        <mxCell id="yl5XS7yj3IDsIzwmvnov-160" value="" style="edgeStyle=orthogonalEdgeStyle;rounded=0;orthogonalLoop=1;jettySize=auto;html=1;entryX=0;entryY=0;entryDx=0;entryDy=0;" edge="1" parent="1" source="yl5XS7yj3IDsIzwmvnov-141" target="yl5XS7yj3IDsIzwmvnov-148">
          <mxGeometry relative="1" as="geometry" />
        </mxCell>
        <mxCell id="yl5XS7yj3IDsIzwmvnov-161" value="&lt;b&gt;&lt;font style=&quot;font-size: 14px;&quot;&gt;i&lt;/font&gt;&lt;/b&gt;" style="edgeLabel;html=1;align=center;verticalAlign=middle;resizable=0;points=[];" vertex="1" connectable="0" parent="yl5XS7yj3IDsIzwmvnov-160">
          <mxGeometry x="0.0366" y="-2" relative="1" as="geometry">
            <mxPoint x="20" y="8" as="offset" />
          </mxGeometry>
        </mxCell>
        <mxCell id="yl5XS7yj3IDsIzwmvnov-141" value="&lt;pre id=&quot;yui_3_18_1_1_1743842538325_100&quot;&gt;&lt;code class=&quot;language-java&quot;&gt;for (int i = 0; i &amp;lt; n; i++)&lt;/code&gt;&lt;/pre&gt;" style="ellipse;whiteSpace=wrap;html=1;" vertex="1" parent="1">
          <mxGeometry x="900" y="1460" width="207" height="80" as="geometry" />
        </mxCell>
        <mxCell id="yl5XS7yj3IDsIzwmvnov-142" value="U" style="ellipse;whiteSpace=wrap;html=1;" vertex="1" parent="1">
          <mxGeometry x="860" y="1480" width="40" height="40" as="geometry" />
        </mxCell>
        <mxCell id="yl5XS7yj3IDsIzwmvnov-144" value="" style="curved=1;endArrow=classic;html=1;rounded=0;exitX=0.5;exitY=1;exitDx=0;exitDy=0;entryX=1;entryY=0;entryDx=0;entryDy=0;" edge="1" parent="1" source="yl5XS7yj3IDsIzwmvnov-2" target="yl5XS7yj3IDsIzwmvnov-141">
          <mxGeometry width="50" height="50" relative="1" as="geometry">
            <mxPoint x="1050" y="630" as="sourcePoint" />
            <mxPoint x="930" y="1150" as="targetPoint" />
            <Array as="points">
              <mxPoint x="1150" y="380" />
              <mxPoint x="1100" y="630" />
              <mxPoint x="1240" y="910" />
              <mxPoint x="1000" y="1050" />
              <mxPoint x="1170" y="1400" />
            </Array>
          </mxGeometry>
        </mxCell>
        <mxCell id="yl5XS7yj3IDsIzwmvnov-145" value="&lt;b&gt;&lt;font style=&quot;font-size: 14px;&quot;&gt;n&lt;/font&gt;&lt;/b&gt;" style="edgeLabel;html=1;align=center;verticalAlign=middle;resizable=0;points=[];" vertex="1" connectable="0" parent="yl5XS7yj3IDsIzwmvnov-144">
          <mxGeometry x="0.9126" y="8" relative="1" as="geometry">
            <mxPoint as="offset" />
          </mxGeometry>
        </mxCell>
        <mxCell id="yl5XS7yj3IDsIzwmvnov-146" value="" style="curved=1;endArrow=classic;html=1;rounded=0;exitX=1;exitY=1;exitDx=0;exitDy=0;entryX=1;entryY=0.5;entryDx=0;entryDy=0;" edge="1" parent="1" source="yl5XS7yj3IDsIzwmvnov-141" target="yl5XS7yj3IDsIzwmvnov-141">
          <mxGeometry width="50" height="50" relative="1" as="geometry">
            <mxPoint x="840" y="1300" as="sourcePoint" />
            <mxPoint x="890" y="1250" as="targetPoint" />
            <Array as="points">
              <mxPoint x="1070" y="1550" />
              <mxPoint x="1140" y="1540" />
            </Array>
          </mxGeometry>
        </mxCell>
        <mxCell id="yl5XS7yj3IDsIzwmvnov-147" value="&lt;b&gt;&lt;font style=&quot;font-size: 14px;&quot;&gt;i&lt;/font&gt;&lt;/b&gt;" style="edgeLabel;html=1;align=center;verticalAlign=middle;resizable=0;points=[];" vertex="1" connectable="0" parent="yl5XS7yj3IDsIzwmvnov-146">
          <mxGeometry x="-0.1126" y="5" relative="1" as="geometry">
            <mxPoint x="14" as="offset" />
          </mxGeometry>
        </mxCell>
        <mxCell id="yl5XS7yj3IDsIzwmvnov-156" value="" style="edgeStyle=orthogonalEdgeStyle;rounded=0;orthogonalLoop=1;jettySize=auto;html=1;" edge="1" parent="1" source="yl5XS7yj3IDsIzwmvnov-148" target="yl5XS7yj3IDsIzwmvnov-154">
          <mxGeometry relative="1" as="geometry" />
        </mxCell>
        <mxCell id="yl5XS7yj3IDsIzwmvnov-157" value="&lt;b&gt;&lt;font style=&quot;font-size: 14px;&quot;&gt;arr&lt;/font&gt;&lt;/b&gt;" style="edgeLabel;html=1;align=center;verticalAlign=middle;resizable=0;points=[];" vertex="1" connectable="0" parent="yl5XS7yj3IDsIzwmvnov-156">
          <mxGeometry x="-0.079" y="-4" relative="1" as="geometry">
            <mxPoint as="offset" />
          </mxGeometry>
        </mxCell>
        <mxCell id="yl5XS7yj3IDsIzwmvnov-148" value="&lt;pre id=&quot;yui_3_18_1_1_1743842538325_100&quot;&gt;&lt;code class=&quot;language-java&quot;&gt;arr[i] = output[i];&lt;/code&gt;&lt;/pre&gt;" style="ellipse;whiteSpace=wrap;html=1;" vertex="1" parent="1">
          <mxGeometry x="910" y="1580" width="710" height="80" as="geometry" />
        </mxCell>
        <mxCell id="yl5XS7yj3IDsIzwmvnov-149" value="V" style="ellipse;whiteSpace=wrap;html=1;" vertex="1" parent="1">
          <mxGeometry x="850" y="1600" width="40" height="40" as="geometry" />
        </mxCell>
        <mxCell id="yl5XS7yj3IDsIzwmvnov-152" value="" style="endArrow=classic;html=1;rounded=0;exitX=0.283;exitY=0.984;exitDx=0;exitDy=0;entryX=0.5;entryY=0;entryDx=0;entryDy=0;exitPerimeter=0;" edge="1" parent="1" source="yl5XS7yj3IDsIzwmvnov-123" target="yl5XS7yj3IDsIzwmvnov-148">
          <mxGeometry width="50" height="50" relative="1" as="geometry">
            <mxPoint x="1060" y="1370" as="sourcePoint" />
            <mxPoint x="1110" y="1320" as="targetPoint" />
          </mxGeometry>
        </mxCell>
        <mxCell id="yl5XS7yj3IDsIzwmvnov-153" value="&lt;b&gt;&lt;font style=&quot;font-size: 14px;&quot;&gt;output&lt;/font&gt;&lt;/b&gt;" style="edgeLabel;html=1;align=center;verticalAlign=middle;resizable=0;points=[];" vertex="1" connectable="0" parent="yl5XS7yj3IDsIzwmvnov-152">
          <mxGeometry x="0.325" y="5" relative="1" as="geometry">
            <mxPoint as="offset" />
          </mxGeometry>
        </mxCell>
        <mxCell id="yl5XS7yj3IDsIzwmvnov-154" value="&lt;pre id=&quot;yui_3_18_1_1_1743842538325_100&quot;&gt;&lt;code class=&quot;language-java&quot;&gt;return arr;&lt;/code&gt;&lt;/pre&gt;" style="ellipse;whiteSpace=wrap;html=1;" vertex="1" parent="1">
          <mxGeometry x="1256.5" y="1754" width="163.5" height="80" as="geometry" />
        </mxCell>
        <mxCell id="yl5XS7yj3IDsIzwmvnov-155" value="Z" style="ellipse;whiteSpace=wrap;html=1;" vertex="1" parent="1">
          <mxGeometry x="1220" y="1774" width="40" height="40" as="geometry" />
        </mxCell>
        <mxCell id="yl5XS7yj3IDsIzwmvnov-158" value="" style="curved=1;endArrow=classic;html=1;rounded=0;exitX=0.613;exitY=0.006;exitDx=0;exitDy=0;entryX=0.5;entryY=1;entryDx=0;entryDy=0;exitPerimeter=0;" edge="1" parent="1" source="yl5XS7yj3IDsIzwmvnov-148" target="yl5XS7yj3IDsIzwmvnov-123">
          <mxGeometry width="50" height="50" relative="1" as="geometry">
            <mxPoint x="1300" y="1380" as="sourcePoint" />
            <mxPoint x="1350" y="1330" as="targetPoint" />
            <Array as="points" />
          </mxGeometry>
        </mxCell>
        <mxCell id="yl5XS7yj3IDsIzwmvnov-159" value="&lt;b&gt;&lt;font style=&quot;font-size: 14px;&quot;&gt;arr&lt;/font&gt;&lt;/b&gt;" style="edgeLabel;html=1;align=center;verticalAlign=middle;resizable=0;points=[];" vertex="1" connectable="0" parent="yl5XS7yj3IDsIzwmvnov-158">
          <mxGeometry x="-0.404" y="8" relative="1" as="geometry">
            <mxPoint as="offset" />
          </mxGeometry>
        </mxCell>
        <mxCell id="yl5XS7yj3IDsIzwmvnov-162" value="" style="curved=1;endArrow=classic;html=1;rounded=0;entryX=0.943;entryY=0.749;entryDx=0;entryDy=0;entryPerimeter=0;exitX=0.702;exitY=0.085;exitDx=0;exitDy=0;exitPerimeter=0;" edge="1" parent="1" source="yl5XS7yj3IDsIzwmvnov-148" target="yl5XS7yj3IDsIzwmvnov-111">
          <mxGeometry width="50" height="50" relative="1" as="geometry">
            <mxPoint x="1408" y="1580" as="sourcePoint" />
            <mxPoint x="1610" y="1490" as="targetPoint" />
            <Array as="points">
              <mxPoint x="1410" y="1530" />
              <mxPoint x="1620" y="1500" />
            </Array>
          </mxGeometry>
        </mxCell>
        <mxCell id="yl5XS7yj3IDsIzwmvnov-164" value="&lt;b&gt;&lt;font style=&quot;font-size: 14px;&quot;&gt;arr&lt;/font&gt;&lt;/b&gt;" style="edgeLabel;html=1;align=center;verticalAlign=middle;resizable=0;points=[];" vertex="1" connectable="0" parent="yl5XS7yj3IDsIzwmvnov-162">
          <mxGeometry x="0.854" y="1" relative="1" as="geometry">
            <mxPoint as="offset" />
          </mxGeometry>
        </mxCell>
        <mxCell id="yl5XS7yj3IDsIzwmvnov-166" value="" style="curved=1;endArrow=classic;html=1;rounded=0;exitX=0.045;exitY=0.308;exitDx=0;exitDy=0;exitPerimeter=0;entryX=0;entryY=1;entryDx=0;entryDy=0;" edge="1" parent="1" source="yl5XS7yj3IDsIzwmvnov-148" target="yl5XS7yj3IDsIzwmvnov-72">
          <mxGeometry width="50" height="50" relative="1" as="geometry">
            <mxPoint x="1150" y="1480" as="sourcePoint" />
            <mxPoint x="970" y="1100" as="targetPoint" />
            <Array as="points">
              <mxPoint x="950" y="1560" />
              <mxPoint x="810" y="1510" />
              <mxPoint x="880" y="1230" />
              <mxPoint x="820" y="1010" />
              <mxPoint x="910" y="970" />
            </Array>
          </mxGeometry>
        </mxCell>
        <mxCell id="yl5XS7yj3IDsIzwmvnov-167" value="&lt;b&gt;arr&lt;/b&gt;" style="edgeLabel;html=1;align=center;verticalAlign=middle;resizable=0;points=[];" vertex="1" connectable="0" parent="yl5XS7yj3IDsIzwmvnov-166">
          <mxGeometry x="0.8299" y="-7" relative="1" as="geometry">
            <mxPoint x="-11" y="-7" as="offset" />
          </mxGeometry>
        </mxCell>
      </root>
    </mxGraphModel>
  </diagram>
</mxfile>
